PathFileType	4	(X/Y/Z)	45_2_103_p1_0-160_filt_butterworth.trc
DataRate	CameraRate	NumFrames	NumMarkers	Units	OrigDataRate	OrigDataStartFrame	OrigNumFrames
49.0	49.0	7	27	m	49.0	20	160
Frame#	Time	RHip			RKnee			RAnkle			RBigToe			RSmallToe			RHeel			LHip			LKnee			LAnkle			LBigToe			LSmallToe			LHeel			Neck			Head			Nose			RShoulder			RElbow			RWrist			RThumb			RIndex			RPinky			LShoulder			LElbow			LWrist			LThumb			LIndex			LPinky			
		X1	Y1	Z1	X2	Y2	Z2	X3	Y3	Z3	X4	Y4	Z4	X5	Y5	Z5	X6	Y6	Z6	X7	Y7	Z7	X8	Y8	Z8	X9	Y9	Z9	X10	Y10	Z10	X11	Y11	Z11	X12	Y12	Z12	X13	Y13	Z13	X14	Y14	Z14	X15	Y15	Z15	X16	Y16	Z16	X17	Y17	Z17	X18	Y18	Z18	X19	Y19	Z19	X20	Y20	Z20	X21	Y21	Z21	X22	Y22	Z22	X23	Y23	Z23	X24	Y24	Z24	X25	Y25	Z25	X26	Y26	Z26	X27	Y27	Z27	
20	0.4081632653061224	0.5669476106356756	0.5113669588785784	0.9515756805791756	0.5919313756030751	0.6631083755125096	1.3317166239911609	0.5903176043021547	0.8376576592789405	1.6769696570675103	0.5886581555270642	0.6811081122670544	1.7511922333780916	0.6482326724767815	0.7249822298467488	1.7482332704104346	0.5748362137676402	0.9501343853323692	1.7256411179558746	0.35770844446826267	0.4998237434714158	0.9800876505601216	0.3900220716132818	0.685747327287141	1.3617450879185486	0.42291596203097087	0.8431788013374862	1.7015194690585067	0.43453573952151364	0.6858123440890664	1.7603469686247986	0.3823005817001204	0.7346225965623633	1.7672436348916067	0.4364280527180401	0.9242551025796887	1.7398267484106318	0.4258166386328788	0.2810195030976843	0.4333172883775432	0.39432703695032345	0.16816106499179778	0.2172504016384791	0.41235300147032156	0.1237634174995856	0.3513857261107942	0.5691236122042398	0.31409280227035735	0.5110766329621975	0.6368042676874572	0.38294256318022435	0.7343960381521706	0.5613121571728142	0.33048421947812645	0.9508217775195484	0.4967005397393956	0.2643264086709532	1.0561575705206092	0.49015900294206993	0.26496336991717273	1.0652622578541533	0.4841778351882462	0.31020646828606646	1.0604796542095796	0.2607559900102471	0.302433896977009	0.5281140274817444	0.2554647172880385	0.3687568442750145	0.7700456719617255	0.36716097816377935	0.3185459431141523	0.9798367310372678	0.47298392879265905	0.2432534323413638	1.0274258936431129	0.47492474390085854	0.25756903896049715	1.0610096160194198	0.4539856733927579	0.3557268333392898	1.0756934527210176
21	0.4285714285714285	0.5646941877358184	0.5097952668995867	0.9515101108413891	0.5901745268138421	0.6620920761186498	1.330343341907237	0.5911409549895275	0.8387734066578201	1.6770042188180425	0.5898350969691692	0.6852293204812778	1.7529604518632709	0.6482664488865731	0.7250074936891073	1.7475922125365935	0.5749084154049736	0.9504424227011257	1.7257894061922596	0.35482247542668843	0.49231878806235013	0.9785526425678456	0.3894258464831628	0.6827208033797292	1.3589396901813613	0.4231781072811208	0.8424588683537689	1.6995061866643857	0.43577624970383844	0.6812608064368068	1.7602106392942003	0.38225821614930244	0.7347101886941034	1.7672513867760158	0.4369750560284005	0.9245138212314026	1.7407693400469806	0.4246835077285871	0.2761912702886292	0.4332388578647478	0.39425877770376316	0.16804608476039	0.21738905476493575	0.41226036395833854	0.1231261893155118	0.3519569508315493	0.568014241867107	0.3106857298862729	0.5118526733804776	0.6352938892960196	0.390963224516498	0.7334796571529117	0.5732068910857677	0.33318306390860103	0.951945099451734	0.511712632785439	0.2687257923633149	1.0579013381414581	0.5094135135567955	0.26436269084896313	1.0669227594724902	0.5069462592301203	0.2996980848422081	1.0618105734944654	0.26046878055021405	0.302600830276992	0.5282660591416587	0.2511116349018217	0.3705188702025186	0.7696705175365182	0.35835595034559325	0.32881865155422746	0.985332844075947	0.464200378578875	0.26038519888300565	1.041475146326099	0.4669068615970314	0.27266367249173956	1.0668139187325887	0.44525586336694944	0.3573668383356392	1.0801923916596803
22	0.4489795918367347	0.5638803970062913	0.5099142385384259	0.9534350626641052	0.5888821828893354	0.6619654836733173	1.3302035266691306	0.5923959510878897	0.8325703354531443	1.6771090941904383	0.5908465326092058	0.6839571910313008	1.7541382822131895	0.6484457651713333	0.725048183579913	1.7465407543540046	0.575044708977573	0.9507259705606846	1.7258862216414341	0.35466100176214643	0.49603628742097544	0.97971030133407	0.3894681663904202	0.6764146642696693	1.355356763800462	0.4233173019319058	0.8419454714987917	1.6985473909926694	0.43626759676728694	0.6708920467732131	1.7600374806756438	0.38226041824861345	0.734574801838942	1.7672540316993341	0.4385231239550923	0.9228245882906808	1.741381792983755	0.42394408973688846	0.2730574994405759	0.43319036728544924	0.3944981741964224	0.1679536630981309	0.21749291231183132	0.4117052406612701	0.1202302099857121	0.35341886538754375	0.5675950916776286	0.3100146698095906	0.5118033141844787	0.6379322606050792	0.3915142042167797	0.7317261801268756	0.5853213568185098	0.3400523035467336	0.9557068392861754	0.522776607885855	0.27765743143998134	1.0606180478741667	0.5289238187162335	0.28234607089055386	1.0751872885723974	0.5363460907124141	0.3213177688992658	1.0698673894775048	0.2612700597737935	0.3060136808595119	0.5273950257126452	0.2457657663813042	0.3736016582807853	0.7693406514437251	0.35074755107722094	0.3407045148543722	0.9896360365637555	0.44819527246075824	0.2812970790669072	1.0547538427728738	0.44711105272264673	0.28705606837871644	1.0738589206249831	0.420339468002955	0.35663966566260136	1.0831504921381518
23	0.4693877551020408	0.5664047883014741	0.509315382734646	0.9587971611394469	0.5884357145462765	0.6626482303271614	1.3317216074514386	0.5941497137931754	0.8231137210366705	1.6772477581232108	0.5911839073169536	0.6788861251048104	1.7542051325765533	0.6487650536715208	0.7250453827437453	1.7453046335588447	0.5748628319240855	0.9494899987412084	1.7256953890910955	0.35818445973840213	0.5052568139055797	0.9833987920790902	0.3909799147110024	0.6698743572131168	1.355204531705672	0.4234021608018673	0.8420486803184994	1.6996120670841126	0.4354131903459877	0.6658491170817182	1.7599484771669052	0.38228673914878863	0.7342772324121346	1.767272001847204	0.44071496983450925	0.9172918912140448	1.740700232633975	0.4237781211361666	0.27253166559905156	0.4331345784716327	0.3954627037975035	0.1680603067322261	0.21699435980467105	0.4108447261680589	0.11584426943011505	0.35485815576666685	0.5664416158080842	0.3106147939003332	0.5111272512135134	0.6451859474223027	0.39043176440128025	0.7285459871069409	0.5987856241633581	0.3505031227613712	0.961402373743073	0.5332585510806754	0.29506170409311167	1.0645362728030106	0.5511317220620217	0.31427750961634704	1.089066948999721	0.5678623616478093	0.3667042458526776	1.0847393265196776	0.26176037973055016	0.31150047969981787	0.5253043428196817	0.2421781357446826	0.3756902198839067	0.7693801925047021	0.3447136371965157	0.34856017808679074	0.9921436453649819	0.4278583398787088	0.29992448609902334	1.0640075921902636	0.4189510285722213	0.2993005621788161	1.0801135076348642	0.3864005279867055	0.3560085173694651	1.0861949309294199
24	0.4897959183673469	0.5715886120358995	0.507112254198396	0.9667125836973338	0.5886504831705027	0.6632364172292216	1.3335505443087192	0.5952686814849656	0.8162278477904512	1.677120110690459	0.5910200350539041	0.674751765421592	1.753714347163113	0.6490275013785173	0.7250840298205496	1.7451344869636785	0.5738704695389274	0.9447962357520757	1.7249003846277997	0.36460704448826076	0.5098006215023108	0.9884943300389917	0.3938785671309454	0.6667851851285517	1.3583856925713684	0.4237190441462804	0.8430106124246545	1.7017612039495058	0.43372828160150645	0.6692150239048477	1.7599877566402953	0.3823113642781269	0.7341012833111757	1.7673136502074067	0.4423439886105506	0.9098234875406428	1.7395774914984339	0.42383754179740285	0.2729867798538857	0.433117031951065	0.39689253102651817	0.16850943852549952	0.21551279136201432	0.41024282677026036	0.11276792690006127	0.3556054983533753	0.5646483293527423	0.31121892829210823	0.5103345908573682	0.6518079052946766	0.39257244194810004	0.72519640833061	0.6131229221157636	0.363316932775561	0.9663629817481413	0.5466959395521086	0.3221911172647292	1.069870616165732	0.574069538023631	0.34531736149184566	1.101792203350261	0.5946926274238943	0.40731143646269563	1.0994131199086739	0.2609712734865409	0.3149258892721514	0.5231962149975884	0.24207149989568658	0.37694990726599514	0.7700131022540797	0.33873380049401264	0.354236943426534	0.9930970227856198	0.4034754946430358	0.3201162872647564	1.0698121527856543	0.39016691831132283	0.3180805944027745	1.0854083871901803	0.35970235870204964	0.3612189460542986	1.0898515735109964
25	0.5102040816326531	0.5765069374202715	0.5022071210548115	0.9737259799595974	0.5896650750159171	0.6634610026207342	1.3343480974114903	0.5946796183711093	0.8109267786184982	1.6763853748645585	0.5910661347283142	0.6748539227158409	1.753600288284951	0.64907406091998	0.7252495492409713	1.7468662954429341	0.572310003053734	0.938001249555515	1.7237958317968318	0.37181554125778365	0.5054878724129733	0.9921041630220606	0.3977654481503674	0.6661888559088598	1.3614252459057659	0.4242663052641707	0.8444119395738671	1.7033204218578684	0.43270881652395554	0.6751959837274351	1.7603149169892198	0.3823450629464611	0.7342048937171766	1.7673615841690222	0.4429028101376716	0.9050175733654151	1.7392197079683442	0.42382704694823625	0.2729740491335246	0.43312893473638125	0.3979453187381351	0.16906364294004153	0.21396987777049797	0.4101542545174929	0.11219974092930536	0.3559495173707575	0.5640827841321345	0.31149123114919713	0.509917955170589	0.6542142046824688	0.3951669022307758	0.7240127673939615	0.6267714733234475	0.3758758163496504	0.9694441251873669	0.5626125761769718	0.3523316094106188	1.0765336020518264	0.5925371737651798	0.3621309860901271	1.108759095970546	0.6152523743382414	0.42769737702389815	1.1074778968188024	0.25937124410983203	0.3149902515405799	0.5223085141363639	0.24392589790055297	0.3783792556144701	0.7708511278480042	0.32934962831436637	0.36717493295381287	0.993330127919938	0.379139358474326	0.34313012360836026	1.074036079878667	0.3685573578692321	0.34284884490787704	1.0901195091170175	0.3432158186253517	0.37455269897753396	1.0933409962623097
26	0.5306122448979592	0.5789778594860077	0.4928843691527627	0.9777343526113687	0.5913270965638238	0.6639527053149272	1.3342339643056706	0.5930849918299561	0.8052162578986992	1.6753238580104537	0.5921290786657811	0.6797792346760962	1.7543850241717778	0.649019005720755	0.7255467491033477	1.7497917542814376	0.5710553077792826	0.9332606038828652	1.723126344855991	0.3774211858362154	0.49443207279315615	0.9925415531612768	0.4017797897685059	0.663765580798217	1.3632262721598698	0.42470295074388115	0.8453572784722966	1.7037268866437374	0.43313795304398267	0.6809641814095045	1.7612232687859968	0.38238789343208257	0.7345433401394981	1.7674231060362298	0.4428154478447928	0.9040749314145873	1.739474575164754	0.42375047869679705	0.27249649145179133	0.4331230349150187	0.3981602327131478	0.1685950105684949	0.21412893943567898	0.41038247596624033	0.11309514091491256	0.35667595870408536	0.56580675331308	0.31133036067905595	0.5097887659332564	0.6535186715382073	0.395326876884689	0.7259255966521214	0.6391335963938195	0.3834654721854154	0.9725291901936192	0.5777714332774713	0.3745888632069334	1.0846296014018226	0.6039581599965147	0.36522395726525303	1.1119033322164076	0.6339650030849581	0.4319809222620237	1.1089238479585628	0.2582995217425791	0.3139855374343215	0.522426327063879	0.24585530017891277	0.37914880469102685	0.7715175501275429	0.31598322388714767	0.3903222540320992	0.9943125253633665	0.36304125229941403	0.36122296925240704	1.07784220525056	0.3557403410378615	0.3597269912663782	1.0936197773060463	0.32584027853026537	0.3916182037260606	1.096268351066306
